<?xml version="1.0" encoding="UTF-8" standalone="no"?>
<!-- Created with Inkscape (http://www.inkscape.org/) -->

<svg
   width="210mm"
   height="297mm"
   viewBox="0 0 210 297"
   version="1.1"
   id="svg1"
   xml:space="preserve"
   inkscape:version="1.3 (0e150ed6c4, 2023-07-21)"
   sodipodi:docname="waterton.svg"
   inkscape:export-filename="waterton.svg"
   inkscape:export-xdpi="96"
   inkscape:export-ydpi="96"
   xmlns:inkscape="http://www.inkscape.org/namespaces/inkscape"
   xmlns:sodipodi="http://sodipodi.sourceforge.net/DTD/sodipodi-0.dtd"
   xmlns="http://www.w3.org/2000/svg"
   xmlns:svg="http://www.w3.org/2000/svg"><sodipodi:namedview
     id="namedview1"
     pagecolor="#ffffff"
     bordercolor="#000000"
     borderopacity="0.25"
     inkscape:showpageshadow="2"
     inkscape:pageopacity="0.0"
     inkscape:pagecheckerboard="0"
     inkscape:deskcolor="#d1d1d1"
     inkscape:document-units="mm"
     inkscape:zoom="1.4878904"
     inkscape:cx="477.1857"
     inkscape:cy="544.731"
     inkscape:window-width="2560"
     inkscape:window-height="1377"
     inkscape:window-x="-8"
     inkscape:window-y="-8"
     inkscape:window-maximized="1"
     inkscape:current-layer="layer1" /><defs
     id="defs1" /><g
     inkscape:label="Layer 1"
     inkscape:groupmode="layer"
     id="layer1"><path
       style="display:inline;fill:#d8d8d8;fill-opacity:1;stroke-width:0.264583;stroke-opacity:0.977215"
       d="m 74.690092,113.35542 c 0.106346,-0.73326 0.935241,-1.19251 1.571761,-1.57176 1.57785,-0.9401 3.482793,-1.19836 5.281118,-1.57176 4.278328,-0.88835 8.65386,-1.28741 13.014182,-1.57176 4.161776,-0.2714 8.343647,-0.28517 12.511217,-0.12575 4.11994,0.1576 8.26706,0.32631 12.32261,1.0688 2.12086,0.38828 4.22792,0.94565 6.22418,1.76037 0.97248,0.39689 2.14373,0.66293 2.76629,1.5089 0.31668,0.43033 0.5059,1.07298 0.31436,1.57176 -0.44026,1.14645 -1.83503,1.69643 -2.95491,2.20046 -3.30685,1.48833 -13.43776,2.84485 -20.24429,2.70343 -7.858519,-0.16328 -22.652757,-0.0586 -29.611978,-3.77223 -0.736319,-0.39292 -1.314329,-1.37451 -1.19454,-2.20046 z"
       id="path1"
       sodipodi:nodetypes="aaaaaaaaaassa"
       inkscape:label="path1" /><path
       style="fill:#afafaf;fill-opacity:1;stroke-width:0.264583;stroke-opacity:0.977215"
       d="m 79.656857,111.84653 c 2.110541,-0.75056 4.384117,-0.93899 6.601399,-1.25741 2.355153,-0.33821 4.728428,-0.56476 7.104359,-0.69158 4.353023,-0.23236 8.720825,-0.28704 13.077055,-0.12574 3.50966,0.12996 7.01666,0.42697 10.49936,0.88019 2.38482,0.31035 4.81424,0.52322 7.10436,1.25741 0.97296,0.31192 1.97182,0.67782 2.7663,1.32028 2.19698,1.7766 -2.91509,2.77175 -5.59547,3.45787 -3.65998,0.93688 -9.86002,1.36498 -14.64881,1.57176 -5.17495,0.22345 -10.372894,-0.0713 -15.529001,-0.56583 -3.652655,-0.35034 -7.336256,-0.73278 -10.876587,-1.6975 -3.53901,-1.08214 -6.204767,-2.24224 -0.502965,-4.14945 z"
       id="path2"
       sodipodi:nodetypes="caaaaasssacc" /><path
       id="path3"
       style="fill:#ebebeb;fill-opacity:0.99748743;stroke-width:0.264583;stroke-opacity:0.977215"
       d="m 74.690015,114.2354 c 0,0 -1.335679,0.85596 -3.275769,3.47938 -1.41906,1.91887 -2.692115,4.17649 -2.948141,6.51743 -0.0075,23.94681 -0.841786,47.97524 -0.06305,71.92378 0.08185,1.85342 0.53995,3.72377 1.320333,5.4069 0.839298,1.8102 2.148859,3.39165 3.520715,4.84053 2.538474,2.91685 6.104082,5.15167 9.94668,5.82135 10.799731,1.49199 32.658082,1.87929 40.286942,-1.23145 1.60081,-0.65274 3.1313,-1.53927 4.46381,-2.64066 1.29317,-1.06887 2.33746,-2.42128 3.3321,-3.77238 0.81395,-1.10566 1.57114,-2.26995 2.13734,-3.52072 0.63415,-1.40087 1.37193,-2.86308 1.38338,-4.40076 0.17015,-22.84549 0.11735,-47.54105 0,-70.41483 -0.007,-1.45084 -0.31348,-2.91469 -0.81752,-4.27519 -0.57073,-1.54048 -1.49883,-2.93722 -2.45205,-4.27519 -0.75842,-1.06454 -2.89197,-2.89199 -2.89197,-2.89199 l -0.097,-0.0665 c -0.55383,0.93652 -1.78332,1.43439 -2.79517,1.8898 -3.30685,1.48833 -13.43772,2.84462 -20.24425,2.7032 -7.858508,-0.16328 -22.652412,-0.0588 -29.611626,-3.77238 -0.48173,-0.25707 -0.891625,-0.76673 -1.086756,-1.3193 z"
       sodipodi:nodetypes="csccsccssssscssccssscc"
       inkscape:label="path3" /><path
       style="fill:#d8d8d8;fill-opacity:1;stroke-width:0.264583;stroke-opacity:0.977215"
       d="m 68.214435,141.83573 c 2.721583,0.49573 5.818078,1.18956 8.801864,1.76037 11.967747,2.28946 19.925062,2.35937 26.403501,2.27461 11.06072,-0.14472 18.08827,-1.22764 30.70721,-3.8228 0.32572,-0.067 1.74037,-0.0416 1.92464,0.60513 0.22237,0.78047 -0.42482,1.48255 -1.58887,1.84463 -7.23303,2.24984 -30.80258,7.68196 -66.814178,-0.14712 -0.629336,-0.14991 -1.019835,-1.14593 -0.817316,-1.76037 0.164399,-0.49878 0.866473,-0.84856 1.383149,-0.75445 z"
       id="path4"
       sodipodi:nodetypes="ssssassas" /><path
       id="path5"
       style="fill:#3c4a5f;fill-opacity:1;stroke-width:0.268382;stroke-opacity:0.977215"
       d="m 68.146228,159.59129 c -0.06496,12.22088 -0.453532,24.86278 0.256832,36.5647 0.112416,1.85185 0.578403,3.70645 1.320333,5.4069 0.765995,1.7556 1.738074,3.40167 3.165066,4.79607 2.659889,2.59915 5.824296,4.85312 10.302329,5.86581 6.9451,1.57061 14.216549,1.36299 21.332552,1.11053 6.36217,-0.22571 12.92877,-0.2877 18.95439,-2.34198 1.63632,-0.55786 3.1313,-1.53922 4.46381,-2.64066 1.29317,-1.06892 2.33749,-2.42122 3.3321,-3.77238 0.81388,-1.10565 1.57116,-2.27 2.13734,-3.52072 0.63414,-1.40084 1.31881,-2.92532 1.38338,-4.40076 0.49758,-11.36966 0.0834,-24.42571 0.10283,-36.89336 -18.44816,2.32581 -35.386284,3.24575 -58.161822,1.17047 z"
       sodipodi:nodetypes="csassaaaaasccc" /><path
       id="path7"
       style="fill:#d8d8d8;fill-opacity:1;stroke-width:0.264583;stroke-opacity:0.977215"
       d="M 142.16187 186.52505 C 139.56064 186.53711 136.66512 186.63578 135.03155 186.64545 C 135.02191 187.84841 135.00286 189.04372 134.98091 190.23593 L 144.08216 190.27211 C 144.08846 190.27211 144.15884 193.3018 144.17104 194.76227 C 144.17375 195.08726 144.43024 195.60447 144.7493 195.87383 C 145.08233 196.15498 145.55836 196.27581 145.99419 196.27381 C 146.36907 196.27179 146.77038 196.15535 147.06079 195.91827 C 147.40536 195.63698 147.66903 195.20316 147.72793 194.76227 C 147.94237 193.15813 147.80005 190.50127 147.68298 188.0495 C 147.67113 187.80137 147.60865 187.53752 147.46077 187.33792 C 147.22588 187.02087 146.76551 186.70659 146.48305 186.67129 C 145.49742 186.54809 143.89905 186.517 142.16187 186.52505 z " /><path
       id="path8"
       style="fill:#73ca6a;fill-opacity:1;stroke-width:0.264583;stroke-opacity:0.977215"
       d="m 145.38389,181.87934 c -2.10114,-1.1e-4 -4.10255,0.0412 -6.32519,0.16846 -0.26671,0.0153 -0.55576,0.0899 -0.75603,0.26665 -0.22357,0.19736 -0.38128,0.50284 -0.39998,0.80047 -0.0776,1.23646 0.0184,2.73256 0.0672,3.47679 0.78931,-0.0174 1.61775,-0.0338 2.46704,-0.047 v -2.31873 c -0.0604,-0.15109 7.49399,-0.0459 11.69172,-0.17783 0.34546,-0.0109 0.86121,-0.0731 1.11163,-0.31102 0.32979,-0.31334 0.40644,-0.92741 0.17789,-1.24495 -0.22172,-0.30805 -0.62969,-0.52624 -1.11164,-0.53324 -2.62072,-0.0379 -4.82144,-0.0795 -6.92258,-0.0796 z"
       sodipodi:nodetypes="sssccccssscss" /><path
       style="fill:#d8d8d8;fill-opacity:1;stroke-width:0.264583;stroke-opacity:0.977215"
       d="m 68.214435,175.97803 c 2.721583,0.49573 5.818078,1.18956 8.801864,1.76037 11.967747,2.28946 19.925062,2.35937 26.403501,2.27461 11.06072,-0.14472 18.08827,-1.22764 30.70721,-3.8228 0.32572,-0.067 1.74037,-0.0416 1.92464,0.60513 0.22237,0.78047 -0.42482,1.48255 -1.58887,1.84463 -7.23303,2.24984 -30.80258,7.68196 -66.814178,-0.14712 -0.629336,-0.14991 -1.019835,-1.14593 -0.817316,-1.76037 0.164399,-0.49878 0.866473,-0.84856 1.383149,-0.75445 z"
       id="path12"
       sodipodi:nodetypes="ssssassas" /></g></svg>
